<?xml version="1.0" encoding="UTF-8" standalone="no"?>
<!-- Created with Inkscape (http://www.inkscape.org/) -->

<svg
   width="420mm"
   height="594mm"
   viewBox="0 0 420 594"
   version="1.1"
   id="svg5"
   inkscape:version="1.2.1 (9c6d41e410, 2022-07-14)"
   sodipodi:docname="Onderplaat.svg"
   xmlns:inkscape="http://www.inkscape.org/namespaces/inkscape"
   xmlns:sodipodi="http://sodipodi.sourceforge.net/DTD/sodipodi-0.dtd"
   xmlns="http://www.w3.org/2000/svg"
   xmlns:svg="http://www.w3.org/2000/svg">
  <sodipodi:namedview
     id="namedview7"
     pagecolor="#ffffff"
     bordercolor="#000000"
     borderopacity="0.25"
     inkscape:showpageshadow="2"
     inkscape:pageopacity="0.0"
     inkscape:pagecheckerboard="0"
     inkscape:deskcolor="#d1d1d1"
     inkscape:document-units="mm"
     showgrid="false"
     inkscape:zoom="0.44631734"
     inkscape:cx="-4.4811165"
     inkscape:cy="732.66255"
     inkscape:window-width="1920"
     inkscape:window-height="1079"
     inkscape:window-x="2520"
     inkscape:window-y="222"
     inkscape:window-maximized="0"
     inkscape:current-layer="layer1" />
  <defs
     id="defs2" />
  <g
     inkscape:label="Laag 1"
     inkscape:groupmode="layer"
     id="layer1">
    <path
       style="fill:#ff0000;fill-opacity:0.00379435;stroke-width:0.1"
       d="m 234.36033,145.95958 h 69.10953"
       id="path4647" />
    <path
       style="fill:#ff0000;fill-opacity:0.00379435;stroke-width:0.1"
       d="M 192.35383,30.965143 H 123.2443"
       id="path4647-6" />
    <path
       style="fill:#ff0000;fill-opacity:0.00379435;stroke:#ff0000;stroke-width:0.1;stroke-dasharray:none;stroke-opacity:1"
       d="m 69.949996,54.603802 c 49.674524,0 50.000004,0 50.000004,0"
       id="path11709" />
    <path
       style="fill:#ff0000;fill-opacity:0.00379435;stroke:#ff0000;stroke-width:0.0935985;stroke-dasharray:none;stroke-opacity:1"
       d="m 69.945136,44.611552 c 0,0 42.831454,-5.356515 56.831514,-5.256391 14.00006,0.100123 26.33761,0.100123 26.33761,0.100123 l 56.83151,5.156268"
       id="path11709-1"
       sodipodi:nodetypes="czcc" />
    <path
       style="fill:#ff0000;fill-opacity:0.00379435;stroke:#ff0000;stroke-width:0.0912871;stroke-dasharray:none;stroke-opacity:1"
       d="m 70.05,142.69945 c 49.67452,0 50,0 50,0"
       id="path11709-5" />
    <path
       style="fill:#ff0000;fill-opacity:0.00379435;stroke:#ff0000;stroke-width:0.1;stroke-dasharray:none;stroke-opacity:1"
       d="m 120,54.653802 c 0,89.114598 0,87.999338 0,87.999338"
       id="path11733" />
    <path
       style="fill:#ff0000;fill-opacity:0.00379435;stroke:#ff0000;stroke-width:0.1;stroke-dasharray:none;stroke-opacity:1"
       d="m 69.999996,44.553802 c 0,10.126659 0,9.999924 0,9.999924"
       id="path11733-0" />
    <path
       style="fill:#ff0000;fill-opacity:0.00379435;stroke:#ff0000;stroke-width:0.1;stroke-dasharray:none;stroke-opacity:1"
       d="m 209.9,44.65816 c 0,10.126659 0,9.999924 0,9.999924"
       id="path11733-0-6" />
    <path
       style="fill:#ff0000;fill-opacity:0.00379435;stroke:#ff0000;stroke-width:0.1;stroke-dasharray:none;stroke-opacity:1"
       d="m 92,252.74509 c 0,78.98795 0,77.99942 0,77.99942"
       id="path11733-7" />
    <path
       style="fill:#ff0000;fill-opacity:0.00379435;stroke:#ff0000;stroke-width:0.1;stroke-dasharray:none;stroke-opacity:1"
       d="m 209.85,54.60816 c -49.67452,0 -50,0 -50,0"
       id="path11709-6" />
    <path
       style="fill:#ff0000;fill-opacity:0.00379435;stroke:#ff0000;stroke-width:0.1;stroke-dasharray:none;stroke-opacity:1"
       d="m 209.95,142.59509 c -49.67452,0 -50,0 -50,0"
       id="path11709-5-2" />
    <path
       style="fill:#ff0000;fill-opacity:0.00379435;stroke:#ff0000;stroke-width:0.1;stroke-dasharray:none;stroke-opacity:1"
       d="m 160,54.545089 c 0,89.114601 0,87.999331 0,87.999331"
       id="path11733-9" />
    <path
       style="fill:#ff0000;fill-opacity:0.00379435;stroke:#ff0000;stroke-width:0.1;stroke-dasharray:none;stroke-opacity:1"
       d="m 210,142.94509 c 0,110 0,110 0,110"
       id="path11767-1" />
    <path
       style="fill:#ff0000;fill-opacity:0.00379435;stroke:#ff0000;stroke-width:0.1;stroke-dasharray:none;stroke-opacity:1"
       d="m 70,142.74509 c 0,110 0,110 0,110"
       id="path11767-1-8" />
    <path
       style="fill:#ff0000;fill-opacity:0.00379435;stroke:#ff0000;stroke-width:0.1;stroke-dasharray:none;stroke-opacity:1"
       d="m 69.95,252.79509 h 22"
       id="path11791" />
    <path
       style="fill:#ff0000;fill-opacity:0.00379435;stroke:#ff0000;stroke-width:0.0829156;stroke-dasharray:none;stroke-opacity:1"
       d="m 70.05,330.78656 h 22"
       id="path11791-2" />
    <path
       style="fill:#ff0000;fill-opacity:0.00379435;stroke:#ff0000;stroke-width:0.0935712;stroke-dasharray:none;stroke-opacity:1"
       d="m 70.01111,340.89055 41.12539,10.05613 57.70681,0.10006 41.16915,-10.15619"
       id="path11791-2-37"
       sodipodi:nodetypes="cccc" />
    <path
       style="fill:#ff0000;fill-opacity:0.00379435;stroke:#ff0000;stroke-width:0.1;stroke-dasharray:none;stroke-opacity:1"
       d="m 188.1,252.84509 c 0,78.98795 0,77.99942 0,77.99942"
       id="path11733-7-0" />
    <path
       style="fill:#ff0000;fill-opacity:0.00379435;stroke:#ff0000;stroke-width:0.1;stroke-dasharray:none;stroke-opacity:1"
       d="m 210.05,252.89509 h -22"
       id="path11791-9" />
    <path
       style="fill:#ff0000;fill-opacity:0.00379435;stroke:#ff0000;stroke-width:0.1;stroke-dasharray:none;stroke-opacity:1"
       d="m 210.05,330.7951 h -22"
       id="path11791-2-3" />
    <path
       style="fill:#ff0000;fill-opacity:0.00379435;stroke:#ff0000;stroke-width:0.1;stroke-dasharray:none;stroke-opacity:1"
       d="m 70.05,330.8451 c 0,10.12666 0,9.99993 0,9.99993"
       id="path11733-0-8" />
    <path
       style="fill:#ff0000;fill-opacity:0.00379435;stroke:#ff0000;stroke-width:0.1;stroke-dasharray:none;stroke-opacity:1"
       d="m 111.1365,330.94683 c 0,20.25331 0,19.99985 0,19.99985"
       id="path11733-0-8-9" />
    <path
       style="fill:#ff0000;fill-opacity:0.00379435;stroke:#ff0000;stroke-width:0.1;stroke-dasharray:none;stroke-opacity:1"
       d="m 168.84331,331.04689 c 0,20.25331 0,19.99985 0,19.99985"
       id="path11733-0-8-9-2" />
    <path
       style="fill:#ff0000;fill-opacity:0.00379435;stroke:#ff0000;stroke-width:0.1;stroke-dasharray:none;stroke-opacity:1"
       d="m 210,330.8451 c 0,10.12666 0,9.99993 0,9.99993"
       id="path11733-0-8-7" />
    <circle
       style="fill:#ff0000;fill-opacity:0.00379435;stroke:#ff0000;stroke-width:0.1;stroke-dasharray:none;stroke-opacity:1"
       id="path15074"
       cx="120.1"
       cy="297.22025"
       r="1.4754099" />
    <circle
       style="fill:#ff0000;fill-opacity:0.00379435;stroke:#ff0000;stroke-width:0.1;stroke-dasharray:none;stroke-opacity:1"
       id="path15074-9"
       cx="120.1"
       cy="289.22025"
       r="1.4754099" />
    <circle
       style="fill:#ff0000;fill-opacity:0.00379435;stroke:#ff0000;stroke-width:0.1;stroke-dasharray:none;stroke-opacity:1"
       id="path15074-94"
       cx="-160.10002"
       cy="297.42026"
       r="1.4754099"
       transform="scale(-1,1)" />
    <circle
       style="fill:#ff0000;fill-opacity:0.00379435;stroke:#ff0000;stroke-width:0.1;stroke-dasharray:none;stroke-opacity:1"
       id="path15074-9-7"
       cx="-160.10002"
       cy="289.42026"
       r="1.4754099"
       transform="scale(-1,1)" />
  </g>
</svg>
